<svg xmlns="http://www.w3.org/2000/svg" xmlns:xlink="http://www.w3.org/1999/xlink" width="767.975" height="756.612" viewBox="0 0 767.975 756.612">
  <defs>
    <style>
      .cls-1 {
        fill: #d6f95f;
      }

      .cls-2, .cls-3 {
        fill: #fff;
        font-weight: 700;
      }

      .cls-2 {
        font-size: 100px;
        font-family: ClashDisplay-Bold, Clash Display;
      }

      .cls-3 {
        font-size: 40px;
        font-family: Satoshi-Bold, Satoshi;
      }

      .cls-4 {
        fill: none;
      }

      .cls-5, .cls-6 {
        stroke: none;
      }

      .cls-6 {
        fill: #d6f95f;
      }

      .cls-7 {
        filter: url(#Polygon_14);
      }

      .cls-8 {
        filter: url(#Polygon_13);
      }
    </style>
    <filter id="Polygon_13" x="0" y="0" width="767.975" height="756.612" filterUnits="userSpaceOnUse">
      <feOffset dy="3" input="SourceAlpha"/>
      <feGaussianBlur stdDeviation="12.5" result="blur"/>
      <feFlood flood-opacity="0.349"/>
      <feComposite operator="in" in2="blur"/>
      <feComposite in="SourceGraphic"/>
    </filter>
    <filter id="Polygon_14" x="16.43" y="15.531" width="735.114" height="725.552" filterUnits="userSpaceOnUse">
      <feOffset dy="3" input="SourceAlpha"/>
      <feGaussianBlur stdDeviation="12.5" result="blur-2"/>
      <feFlood flood-opacity="0.349"/>
      <feComposite operator="in" in2="blur-2"/>
      <feComposite in="SourceGraphic"/>
    </filter>
  </defs>
  <g id="Group_201" data-name="Group 201" transform="translate(-1211.012 -3047.992)">
    <g id="Group_179" data-name="Group 179" transform="matrix(0.891, 0.454, -0.454, 0.891, 2160.642, -1200.127)">
      <g class="cls-8" transform="matrix(0.89, -0.45, 0.45, 0.89, 1082.48, 4216.22)">
        <path id="Polygon_13-2" data-name="Polygon 13" class="cls-1" d="M316.766,24.17a20,20,0,0,1,33.175,10.783l10.968,54.93a20,20,0,0,0,21.95,15.947l55.676-6.552a20,20,0,0,1,20.5,28.23l-23.421,50.847a20,20,0,0,0,8.388,25.815l48.861,27.382a20,20,0,0,1,0,34.894l-48.861,27.382a20,20,0,0,0-8.388,25.815l23.421,50.847a20,20,0,0,1-20.5,28.23l-55.676-6.552a20,20,0,0,0-21.95,15.947l-10.968,54.93a20,20,0,0,1-33.175,10.783l-41.2-38.017a20,20,0,0,0-27.124,0l-41.2,38.017a20,20,0,0,1-33.175-10.783l-10.968-54.93a20,20,0,0,0-21.95-15.947l-55.676,6.552a20,20,0,0,1-20.5-28.23l23.422-50.847a20,20,0,0,0-8.388-25.815L31.133,266.447a20,20,0,0,1,0-34.894l48.861-27.382a20,20,0,0,0,8.388-25.815L64.962,127.509a20,20,0,0,1,20.5-28.23l55.676,6.552a20,20,0,0,0,21.95-15.947l10.968-54.93A20,20,0,0,1,207.234,24.17l41.2,38.017a20,20,0,0,0,27.124,0Z" transform="matrix(0.89, 0.45, -0.45, 0.89, 263.59, 34.5)"/>
      </g>
      <text id="_100_" data-name="100+" class="cls-2" transform="translate(1475 4387.936)"><tspan x="0" y="0">100+</tspan></text>
      <text id="ARTISTS" class="cls-3" transform="translate(1516 4443.66)"><tspan x="0" y="0">ARTISTS</tspan></text>
      <g class="cls-7" transform="matrix(0.89, -0.45, 0.45, 0.89, 1082.48, 4216.22)">
        <g id="Polygon_14-2" data-name="Polygon 14" class="cls-4" transform="matrix(0.89, 0.45, -0.45, 0.89, 263.59, 34.5)">
          <path class="cls-5" d="M316.766,24.17a20,20,0,0,1,33.175,10.783l10.968,54.93a20,20,0,0,0,21.95,15.947l55.676-6.552a20,20,0,0,1,20.5,28.23l-23.421,50.847a20,20,0,0,0,8.388,25.815l48.861,27.382a20,20,0,0,1,0,34.894l-48.861,27.382a20,20,0,0,0-8.388,25.815l23.421,50.847a20,20,0,0,1-20.5,28.23l-55.676-6.552a20,20,0,0,0-21.95,15.947l-10.968,54.93a20,20,0,0,1-33.175,10.783l-41.2-38.017a20,20,0,0,0-27.124,0l-41.2,38.017a20,20,0,0,1-33.175-10.783l-10.968-54.93a20,20,0,0,0-21.95-15.947l-55.676,6.552a20,20,0,0,1-20.5-28.23l23.422-50.847a20,20,0,0,0-8.388-25.815L31.133,266.447a20,20,0,0,1,0-34.894l48.861-27.382a20,20,0,0,0,8.388-25.815L64.962,127.509a20,20,0,0,1,20.5-28.23l55.676,6.552a20,20,0,0,0,21.95-15.947l10.968-54.93A20,20,0,0,1,207.234,24.17l41.2,38.017a20,20,0,0,0,27.124,0Z"/>
          <path class="cls-6" d="M 193.7583618164062 18.8516845703125 C 184.7673034667969 18.85183715820312 176.0633850097656 24.91366577148438 174.0588684082031 34.95315551757812 L 163.0912170410156 89.88363647460938 C 161.0497131347656 100.1082153320312 151.4957275390625 107.0491027832031 141.140869140625 105.83056640625 L 85.46450805664062 99.27850341796875 C 69.9500732421875 97.45278930664062 58.42623901367188 113.3209838867188 64.96157836914062 127.5089416503906 L 88.38299560546875 178.3563537597656 C 92.74771118164062 187.8320007324219 89.09579467773438 199.0708618164062 79.99484252929688 204.1709289550781 L 31.13351440429688 231.5527954101562 C 17.5032958984375 239.1911315917969 17.5032958984375 258.8087768554688 31.13351440429688 266.4471435546875 L 79.99478149414062 293.8289794921875 C 89.095703125 298.9290771484375 92.74765014648438 310.1679992675781 88.3829345703125 319.6435546875 L 64.96142578125 370.4909973144531 C 58.42611694335938 384.6790161132812 69.95172119140625 400.5472106933594 85.46441650390625 398.721435546875 L 141.1407775878906 392.16943359375 C 151.4962158203125 390.9508666992188 161.0496520996094 397.8917846679688 163.0911560058594 408.1163635253906 L 174.0587158203125 463.0467834472656 C 177.1159973144531 478.3592529296875 195.7575988769531 484.41845703125 207.2337951660156 473.8299865722656 L 248.4377746582031 435.8131408691406 C 256.0980529785156 428.7454223632812 267.9019165039062 428.7454223632812 275.5621948242188 435.8131408691406 L 316.7662353515625 473.830078125 C 328.2423095703125 484.4185791015625 346.884033203125 478.3592834472656 349.9412841796875 463.0467834472656 L 360.9088745117188 408.1163635253906 C 362.9503784179688 397.8917846679688 372.5043029785156 390.9507141113281 382.8591918945312 392.16943359375 L 438.5355834960938 398.721435546875 C 454.0492553710938 400.5470886230469 465.5737915039062 384.6789245605469 459.0385131835938 370.4909973144531 L 435.6170654296875 319.6436462402344 C 431.2523498535156 310.1679992675781 434.904296875 298.9291381835938 444.0052185058594 293.8290710449219 L 492.8665161132812 266.4472045898438 C 506.4967041015625 258.808837890625 506.4967041015625 239.1912231445312 492.8665161132812 231.5528564453125 L 444.0052185058594 204.1710815429688 C 434.904296875 199.0709228515625 431.2522888183594 187.8320007324219 435.6170043945312 178.3564147949219 L 459.0385131835938 127.5090026855469 C 465.2267456054688 114.074462890625 455.2238159179688 99.13348388671875 440.9725952148438 99.13458251953125 C 440.1734313964844 99.1346435546875 439.3592834472656 99.18170166015625 438.5354919433594 99.27865600585938 L 382.8591918945312 105.8306579589844 C 372.504150390625 107.0491638183594 362.9503784179688 100.1082763671875 360.9088745117188 89.88363647460938 L 349.9412841796875 34.95327758789062 C 346.8839721679688 19.6407470703125 328.2423095703125 13.58148193359375 316.7661437988281 24.17007446289062 L 275.5623779296875 62.18679809570312 C 267.9020690917969 69.25448608398438 256.0982360839844 69.25454711914062 248.4379272460938 62.18685913085938 L 207.2340087890625 24.17001342773438 C 203.2820129394531 20.52371215820312 198.480712890625 18.85159301757812 193.7583618164062 18.8516845703125 M 193.7581481933594 10.85165405273438 L 193.7582092285156 10.85165405273438 C 200.7472839355469 10.8515625 207.4596557617188 13.4932861328125 212.6588439941406 18.290283203125 L 253.86279296875 56.30722045898438 C 256.0857238769531 58.358154296875 258.9755859375 59.48764038085938 262.0000610351562 59.48764038085938 C 265.0246276855469 59.48764038085938 267.9144897460938 58.358154296875 270.137451171875 56.30712890625 L 311.34130859375 18.29043579101562 C 316.540283203125 13.49349975585938 323.2525634765625 10.85177612304688 330.24169921875 10.85177612304688 C 343.5951538085938 10.85177612304688 355.1793518066406 20.3292236328125 357.7864379882812 33.38693237304688 L 368.7539978027344 88.31729125976562 C 369.962890625 94.37210083007812 375.66552734375 98.62188720703125 381.9240112304688 97.885498046875 L 437.6004943847656 91.33349609375 C 438.7402038574219 91.19937133789062 439.8664245605469 91.1346435546875 440.9718627929688 91.13458251953125 C 450.4994201660156 91.13385009765625 459.2825012207031 95.96621704101562 464.4666442871094 104.0611572265625 C 469.6312255859375 112.1256408691406 470.318359375 122.1424255371094 466.3047180175781 130.8559875488281 L 442.8832092285156 181.7034301757812 C 440.2823486328125 187.3496398925781 442.4931335449219 194.1531372070312 447.9161376953125 197.1921997070312 L 496.7774353027344 224.5740051269531 C 505.739013671875 229.5960083007812 511.0891418457031 238.727294921875 511.0891418457031 249 C 511.0891418457031 259.2727661132812 505.739013671875 268.404052734375 496.7774353027344 273.4260864257812 L 447.9161376953125 300.8079223632812 C 442.4931335449219 303.846923828125 440.2824096679688 310.6503601074219 442.88330078125 316.296630859375 L 466.3047180175781 367.1439819335938 C 470.3179321289062 375.8565673828125 469.6307983398438 385.8726501464844 464.4666442871094 393.9369201660156 C 459.2826538085938 402.0324096679688 450.4998474121094 406.8655090332031 440.97265625 406.8655090332031 C 439.8655700683594 406.8655090332031 438.7415771484375 406.8009338378906 437.6004333496094 406.6665649414062 L 381.9241943359375 400.1145629882812 C 375.6633911132812 399.3775939941406 369.9628295898438 403.6283264160156 368.7539978027344 409.6828002929688 L 357.7864379882812 464.6131591796875 C 355.1792907714844 477.6709289550781 343.5950927734375 487.1483459472656 330.24169921875 487.1483459472656 C 323.2525634765625 487.1483459472656 316.540283203125 484.5065612792969 311.34130859375 479.709716796875 L 270.1373596191406 441.6927795410156 C 267.9144287109375 439.641845703125 265.0245056152344 438.5123596191406 262 438.5123596191406 C 258.9754943847656 438.5123596191406 256.0855712890625 439.641845703125 253.8626403808594 441.69287109375 L 212.6586303710938 479.709716796875 C 207.4596557617188 484.5065612792969 200.7473449707031 487.1482849121094 193.75830078125 487.1482849121094 C 180.4048461914062 487.1482849121094 168.8206481933594 477.6708679199219 166.2135620117188 464.6131591796875 L 155.2460021972656 409.6827087402344 C 154.037109375 403.6279602050781 148.3344116210938 399.3779907226562 142.0759887695312 400.1145629882812 L 86.3994140625 406.6665649414062 C 85.25949096679688 406.8007202148438 84.133056640625 406.8655090332031 83.02734375 406.8655090332031 C 73.49957275390625 406.8655090332031 64.71649169921875 402.0325622558594 59.53265380859375 393.9374389648438 C 54.36865234375 385.8733520507812 53.68179321289062 375.8571472167969 57.69522094726562 367.1439819335938 L 81.11669921875 316.2965698242188 C 83.71755981445312 310.6502685546875 81.50686645507812 303.8468627929688 76.0838623046875 300.807861328125 L 27.22256469726562 273.4259948730469 C 18.260986328125 268.4039916992188 12.91085815429688 259.272705078125 12.91085815429688 248.9999237060547 C 12.91085815429688 238.7272033691406 18.260986328125 229.5959167480469 27.22256469726562 224.5739135742188 L 76.08392333984375 197.1920776367188 C 81.50692749023438 194.153076171875 83.7176513671875 187.3496398925781 81.11679077148438 181.703369140625 L 57.69534301757812 130.8559265136719 C 53.68234252929688 122.143798828125 54.36920166015625 112.1282043457031 59.53277587890625 104.0641479492188 C 64.71658325195312 95.96856689453125 73.49942016601562 91.135009765625 83.02691650390625 91.13442993164062 C 84.13449096679688 91.13442993164062 85.25851440429688 91.19900512695312 86.39962768554688 91.33334350585938 L 142.0758666992188 97.88543701171875 C 148.3363342285156 98.62249755859375 154.0372314453125 94.3717041015625 155.2460632324219 88.31719970703125 L 166.2137145996094 33.38671875 C 168.82080078125 20.329345703125 180.4048461914062 10.8519287109375 193.7581481933594 10.85165405273438 Z"/>
        </g>
      </g>
    </g>
  </g>
</svg>
